<?xml version="1.0" encoding="utf-8"?>
<!-- Generator: Adobe Illustrator 18.0.0, SVG Export Plug-In . SVG Version: 6.00 Build 0)  -->
<!DOCTYPE svg PUBLIC "-//W3C//DTD SVG 1.1//EN" "http://www.w3.org/Graphics/SVG/1.1/DTD/svg11.dtd">
<svg version="1.1" id="Layer_1" xmlns="http://www.w3.org/2000/svg" xmlns:xlink="http://www.w3.org/1999/xlink" x="0px" y="0px"
	 viewBox="0 0 186.7 176.9" enable-background="new 0 0 186.7 176.9" xml:space="preserve">
<g>
	<path fill="none" stroke="#E54D3B" stroke-width="4" stroke-miterlimit="10" d="M165.3,133.3c-14.2,24.9-41.1,41.7-72,41.7
		c-30.8,0-57.8-16.8-72-41.7"/>
	<g>
		<polygon fill="none" stroke="#E54D3B" stroke-width="4" stroke-miterlimit="10" points="130.9,86.6 111.6,107 92.2,56.6 
			72.8,107.4 53.5,86.6 53.5,127.3 130.9,127.3 		"/>
		<ellipse fill="none" stroke="#E54D3B" stroke-width="4" stroke-miterlimit="10" cx="92.2" cy="49.1" rx="4.6" ry="3.7"/>
		<ellipse fill="none" stroke="#E54D3B" stroke-width="4" stroke-miterlimit="10" cx="130.9" cy="79.9" rx="4.6" ry="3.7"/>
		<ellipse fill="none" stroke="#E54D3B" stroke-width="4" stroke-miterlimit="10" cx="53.5" cy="79.9" rx="4.6" ry="3.7"/>
	</g>
	<path id="SVGID_x5F_1_x5F_" fill="none" d="M31.4,137.8c-9.3-12.6-14.8-28.1-14.8-44.9c0-42.1,34.3-76.2,76.7-76.2
		s76.7,34.1,76.7,76.2c0,16.8-5.5,32.3-14.8,44.9"/>
	<text>	<textPath  xlink:href="#SVGID_x5F_1_x5F_" startOffset="0%">
<tspan  fill="#E54D3B" font-family="'Helvetica-Bold'" font-size="19.3663" letter-spacing="220">CROWN TOWN COMPOST</tspan>	</textPath>
</text>
</g>
</svg>
