<?xml version="1.0" encoding="utf-8"?>
<!-- Generator: Adobe Illustrator 18.0.0, SVG Export Plug-In . SVG Version: 6.00 Build 0)  -->
<!DOCTYPE svg PUBLIC "-//W3C//DTD SVG 1.1//EN" "http://www.w3.org/Graphics/SVG/1.1/DTD/svg11.dtd">
<svg version="1.1" id="Layer_1" xmlns="http://www.w3.org/2000/svg" xmlns:xlink="http://www.w3.org/1999/xlink" x="0px" y="0px"
	 viewBox="0 0 410.1 125.9" enable-background="new 0 0 410.1 125.9" xml:space="preserve">
<g>
	<g>
		<polygon fill="none" stroke="#E54D3B" stroke-width="3" stroke-linejoin="round" stroke-miterlimit="10" points="86.5,61.6 
			73.2,75.6 59.8,40.9 46.5,75.9 33.1,61.6 33.1,89.7 86.5,89.7 		"/>
		<ellipse fill="none" stroke="#E54D3B" stroke-width="3" stroke-miterlimit="10" cx="59.8" cy="35.8" rx="3.2" ry="2.5"/>
		<ellipse fill="none" stroke="#E54D3B" stroke-width="3" stroke-miterlimit="10" cx="86.5" cy="57" rx="3.2" ry="2.5"/>
		<ellipse fill="none" stroke="#E54D3B" stroke-width="3" stroke-miterlimit="10" cx="33.1" cy="57" rx="3.2" ry="2.5"/>
	</g>
	<path fill="none" stroke="#E54D3B" stroke-width="3" stroke-miterlimit="10" d="M113.7,89.5c-9.2,20.6-29.9,34.9-53.9,34.9
		c-24,0-44.7-14.3-53.9-34.9"/>
</g>
<g>
	<path fill="none" stroke="#E54D3B" stroke-width="3" stroke-miterlimit="10" d="M258.9,89.5c-9.2,20.6-29.9,34.9-53.9,34.9
		c-24,0-44.7-14.3-53.9-34.9"/>
	<path fill="none" stroke="#E54D3B" stroke-width="3" stroke-miterlimit="10" d="M151.1,89.5c-3.3-7.4-5.2-15.6-5.2-24.2
		c0-32.6,26.4-59.1,59.1-59.1"/>
	<g>
		<polyline fill="none" stroke="#E94D3C" stroke-width="3" stroke-miterlimit="10" points="192.1,52 202.5,71 181.7,71 192.1,52 
			189.5,47.2 		"/>
		<polyline fill="none" stroke="#E94D3C" stroke-width="3" stroke-miterlimit="10" points="222,71 216,52 192.3,52 		"/>
		<path fill="none" stroke="#E94D3C" stroke-width="3" stroke-miterlimit="10" d="M216.4,52.2l-2.6-5.9h7.8c0,0,3,5.1-2.6,5.9"/>
		<path fill="#E94D3C" d="M195.1,47.9h-8.9c-0.8,0-1.5-0.7-1.5-1.5v0c0-0.8,0.7-1.5,1.5-1.5h8.9c0.8,0,1.5,0.7,1.5,1.5v0
			C196.6,47.2,195.9,47.9,195.1,47.9z"/>
		<circle fill="none" stroke="#E94D3C" stroke-width="3" stroke-miterlimit="10" cx="183.1" cy="71" r="13.2"/>
		<circle fill="none" stroke="#E94D3C" stroke-width="3" stroke-miterlimit="10" cx="221.7" cy="71" r="13.2"/>
		<circle fill="#2D3F50" stroke="#E94D3C" stroke-width="3" stroke-miterlimit="10" cx="202.5" cy="71" r="2.5"/>
	</g>
</g>
<path fill="none" stroke="#E54D3B" stroke-width="3" stroke-miterlimit="10" d="M396.8,96.9c-10.5,16.5-28.9,27.5-49.9,27.5
	c-24,0-44.7-14.3-53.9-34.9"/>
<path fill="none" stroke="#E54D3B" stroke-width="3" stroke-miterlimit="10" d="M346.8,6.3c32.6,0,59.1,26.4,59.1,59.1
	c0,8.6-1.8,16.8-5.2,24.2"/>
<path fill="none" stroke="#E54D3B" stroke-width="3" stroke-miterlimit="10" d="M292.9,89.5c-3.3-7.4-5.2-15.6-5.2-24.2
	c0-32.6,26.4-59.1,59.1-59.1"/>
<path fill="#2D3F50" stroke="#E54E3B" stroke-width="2" stroke-miterlimit="10" d="M346.6,38.7c-4.9-4.1,0.5-9.8,5.8-12.3
	c3-1.4,6.7-0.8,6.7-0.8s-2.3,2.4-3.8,5.2C352.8,35.5,350,41.5,346.6,38.7z"/>
<path fill="none" stroke="#E54E3B" stroke-width="2" stroke-miterlimit="10" d="M346.6,57c0,0-6.4-17.9,4.1-24.7"/>
<path fill="#2D3F50" stroke="#E64D3B" stroke-width="3" stroke-miterlimit="10" d="M364.8,52.5V91c-17.1,7.1-37.5,0-37.5,0l0-38.5"
	/>
<path fill="none" stroke="#E64D3B" stroke-width="3" stroke-miterlimit="10" d="M325.7,52.5c0,0,0.7,20.1,20.9,19.3
	c20.1-0.9,18-19.3,18-19.3"/>
<rect x="339.9" y="70.5" fill="#E64D3B" stroke="#E64D3B" stroke-width="3" stroke-miterlimit="10" width="11.5" height="2.5"/>
<path fill="#2D3F50" stroke="#E64D3B" stroke-width="3" stroke-miterlimit="10" d="M366.5,52.5l0.2-8.5c-22.1,3-41.1,0-41.1,0v8.5
	C325.6,52.5,344.4,55.6,366.5,52.5z"/>
<polyline fill="#E54E3A" points="397.6,78.9 399.1,93.2 410.1,84 "/>
<polyline fill="#E54E3A" points="12.2,87.2 0.8,78.6 0,92.9 "/>
<polyline fill="#E54E3B" points="204.9,12.9 216.9,6.4 204.9,0 "/>
</svg>
